<svg xmlns="http://www.w3.org/2000/svg" version="1.1" xmlns:xlink="http://www.w3.org/1999/xlink" xmlns:svgjs="http://svgjs.com/svgjs" width="512" height="512" x="0" y="0" viewBox="0 0 24 24" style="enable-background:new 0 0 512 512" xml:space="preserve" class=""><defs><linearGradient id="b" x1="12" x2="12" y1="0" y2="24" gradientUnits="userSpaceOnUse"><stop offset="0" stop-color="#fd7800"></stop><stop offset="1" stop-color="#ffc900"></stop></linearGradient><linearGradient id="b" x1="12" x2="12" y1="0" y2="24" gradientUnits="userSpaceOnUse"><stop offset="0" stop-color="#fd7800"></stop><stop offset="1" stop-color="#ffc900"></stop></linearGradient><linearGradient id="b" x1="12" x2="12" y1="0" y2="24" gradientUnits="userSpaceOnUse"><stop offset="0" stop-color="#fd7800"></stop><stop offset="1" stop-color="#ffc900"></stop></linearGradient></defs><g><linearGradient id="b" x1="12" x2="12" y1="0" y2="24" gradientUnits="userSpaceOnUse"><stop offset="0" stop-color="#fd7800"></stop><stop offset="1" stop-color="#ffc900"></stop></linearGradient><clipPath id="a"><path d="M0 0h24v24H0z" fill="#000000" data-original="#000000"></path></clipPath><g fill="url(&quot;#b&quot;)" clip-path="url(#a)"><path d="M11.5 5C7.916 5 5 7.916 5 11.5S7.916 18 11.5 18s6.5-2.916 6.5-6.5S15.084 5 11.5 5zM11.5 4a.5.5 0 0 0 .5-.5v-3a.5.5 0 0 0-1 0v3a.5.5 0 0 0 .5.5zM11.5 19a.5.5 0 0 0-.5.5v3a.5.5 0 0 0 1 0v-3a.5.5 0 0 0-.5-.5zM4 11.5a.5.5 0 0 0-.5-.5h-3a.5.5 0 0 0 0 1h3a.5.5 0 0 0 .5-.5z" fill="url(&quot;#b&quot;)"></path><path d="M23.5 12a.5.5 0 0 0 0-1H22V8h1.5a.5.5 0 0 0 0-1H22v-.5c0-.827-.673-1.5-1.5-1.5S19 5.673 19 6.5v10.556a.483.483 0 0 1-.236.419c-1.323.756-1.988 2.217-1.696 3.721A3.487 3.487 0 0 0 20.494 24 3.5 3.5 0 0 0 24 20.5a3.502 3.502 0 0 0-1.746-3.017.492.492 0 0 1-.254-.428V16h1.5a.5.5 0 0 0 0-1H22v-3zm-3-6a.5.5 0 0 1 .5.5V11h-1V6.5a.5.5 0 0 1 .5-.5zM5.487 6.197a.498.498 0 0 0 .708 0 .5.5 0 0 0 0-.707L4.072 3.368a.5.5 0 0 0-.707.707zM5.487 16.804l-2.122 2.121a.5.5 0 0 0 .708.707l2.122-2.121a.5.5 0 0 0-.708-.707zM17.155 6.343a.502.502 0 0 0 .354-.146l2.121-2.122a.5.5 0 0 0-.707-.707l-2.12 2.122a.5.5 0 0 0 .352.853z" fill="url(&quot;#b&quot;)"></path></g></g></svg>